<?xml version="1.0" encoding="UTF-8"?>
<svg id="Layer_1" data-name="Layer 1" xmlns="http://www.w3.org/2000/svg" version="1.1" viewBox="0 0 256 256">
  <defs>
    <style>
      .cls-1 {
        fill: #df1d1d;
        stroke-width: 0px;
      }
    </style>
  </defs>
  <path class="cls-1" d="M39.1,250.1L5.6,216.7c-5.6-5.7-5.6-14.9,0-20.5L196.2,5.6c5.6-5.6,14.8-5.6,20.5,0l33.4,33.4c5.7,5.7,5.7,14.8,0,20.5L59.5,250.1c-5.7,5.7-14.8,5.7-20.5,0h0Z"/>
  <path class="cls-1" d="M196.2,250.1L5.6,59.5c-5.6-5.6-5.6-14.8,0-20.4L39.1,5.6c5.6-5.6,14.8-5.6,20.4,0l190.5,190.5c5.7,5.7,5.7,14.8,0,20.5l-33.4,33.4c-5.7,5.7-14.8,5.7-20.5,0h0Z"/>
</svg>